<svg width="57" height="18" viewBox="0 0 57 18" fill="none" xmlns="http://www.w3.org/2000/svg">
<path d="M14.6727 5.49106L8 12.1637V15.5H11.3364L18.0091 8.82736M14.6727 5.49106L17.0654 3.09837L17.0669 3.09695C17.3962 2.76759 17.5612 2.60261 17.7514 2.54082C17.9189 2.48639 18.0993 2.48639 18.2669 2.54082C18.4569 2.60257 18.6217 2.76735 18.9506 3.09625L20.4018 4.54738C20.7321 4.87769 20.8973 5.04292 20.9592 5.23337C21.0136 5.40088 21.0136 5.58133 20.9592 5.74885C20.8974 5.93916 20.7324 6.10414 20.4025 6.43398L20.4018 6.43468L18.0091 8.82736M14.6727 5.49106L18.0091 8.82736" stroke="#CDCDCD" stroke-linecap="round" stroke-linejoin="round"/>
<path d="M34.8741 7.61505C34.8071 6.74386 35.4959 6 36.3697 6H43.63C44.5039 6 45.1927 6.74385 45.1257 7.61505L44.6064 14.365C44.5463 15.1465 43.8946 15.75 43.1108 15.75H36.8889C36.1051 15.75 35.4535 15.1465 35.3934 14.365L34.8741 7.61505Z" stroke="#CDCDCD"/>
<path d="M45.625 3.75H34.375" stroke="#CDCDCD" stroke-linecap="round"/>
<path d="M38.5 2.25C38.5 1.83579 38.8358 1.5 39.25 1.5H40.75C41.1642 1.5 41.5 1.83579 41.5 2.25V3.75H38.5V2.25Z" stroke="#CDCDCD"/>
<path d="M41.5 9V12.75" stroke="#CDCDCD" stroke-linecap="round"/>
<path d="M38.5 9V12.75" stroke="#CDCDCD" stroke-linecap="round"/>
</svg>
